<svg width="156" height="24" viewBox="0 0 156 24" fill="none" xmlns="http://www.w3.org/2000/svg">
<path d="M12.8438 1.64062L19.3594 8.15625C20.6719 9.46875 20.6719 11.5781 19.3594 12.8906L12.8438 19.4062C11.5312 20.7188 9.42188 20.7188 8.10938 19.4062L1.59375 12.8906C0.28125 11.5781 0.28125 9.46875 1.59375 8.15625L8.10938 1.64062C9.42188 0.328125 11.5312 0.328125 12.8438 1.64062ZM9.375 10.5C9.375 11.1562 9.84375 11.625 10.5 11.625C11.1094 11.625 11.625 11.1562 11.625 10.5C11.625 9.89062 11.1094 9.375 10.5 9.375C9.84375 9.375 9.375 9.89062 9.375 10.5ZM4.5 9.375C3.84375 9.375 3.375 9.89062 3.375 10.5C3.375 11.1562 3.84375 11.625 4.5 11.625C5.10938 11.625 5.625 11.1562 5.625 10.5C5.625 9.89062 5.10938 9.375 4.5 9.375ZM10.5 17.625C11.1094 17.625 11.625 17.1562 11.625 16.5C11.625 15.8906 11.1094 15.375 10.5 15.375C9.84375 15.375 9.375 15.8906 9.375 16.5C9.375 17.1562 9.84375 17.625 10.5 17.625ZM16.5 9.375C15.8438 9.375 15.375 9.89062 15.375 10.5C15.375 11.1562 15.8438 11.625 16.5 11.625C17.1094 11.625 17.625 11.1562 17.625 10.5C17.625 9.89062 17.1094 9.375 16.5 9.375ZM10.5 5.625C11.1094 5.625 11.625 5.15625 11.625 4.5C11.625 3.89062 11.1094 3.375 10.5 3.375C9.84375 3.375 9.375 3.89062 9.375 4.5C9.375 5.15625 9.84375 5.625 10.5 5.625ZM15 21V19.4062L20.4375 13.9688C21.75 12.6094 22.1719 10.6875 21.6094 9H27C28.6406 9 30 10.3594 30 12V21C30 22.6875 28.6406 24 27 24H18C16.3125 24 15 22.6875 15 21ZM22.5 15.375C21.8438 15.375 21.375 15.8906 21.375 16.5C21.375 17.1562 21.8438 17.625 22.5 17.625C23.1094 17.625 23.625 17.1562 23.625 16.5C23.625 15.8906 23.1094 15.375 22.5 15.375Z" fill="#604FED"/>
<path d="M46.462 20.216C45.61 20.216 44.842 20.084 44.158 19.82C43.474 19.544 42.892 19.142 42.412 18.614C41.932 18.074 41.56 17.408 41.296 16.616C41.032 15.812 40.9 14.876 40.9 13.808C40.9 12.752 41.032 11.816 41.296 11C41.56 10.172 41.932 9.482 42.412 8.93C42.892 8.366 43.474 7.94 44.158 7.652C44.842 7.364 45.61 7.22 46.462 7.22C47.626 7.22 48.586 7.46 49.342 7.94C50.098 8.408 50.704 9.152 51.16 10.172L48.802 11.396C48.634 10.868 48.37 10.448 48.01 10.136C47.662 9.812 47.146 9.65 46.462 9.65C45.658 9.65 45.01 9.914 44.518 10.442C44.038 10.958 43.798 11.714 43.798 12.71V14.726C43.798 15.722 44.038 16.484 44.518 17.012C45.01 17.528 45.658 17.786 46.462 17.786C47.134 17.786 47.668 17.606 48.064 17.246C48.472 16.874 48.772 16.43 48.964 15.914L51.196 17.21C50.728 18.17 50.11 18.914 49.342 19.442C48.586 19.958 47.626 20.216 46.462 20.216Z" fill="#604FED"/>
<path d="M57.5621 20.216C56.7341 20.216 55.9781 20.078 55.2941 19.802C54.6101 19.526 54.0281 19.118 53.5481 18.578C53.0681 18.026 52.6961 17.348 52.4321 16.544C52.1681 15.728 52.0361 14.786 52.0361 13.718C52.0361 12.65 52.1681 11.714 52.4321 10.91C52.6961 10.094 53.0681 9.416 53.5481 8.876C54.0281 8.324 54.6101 7.91 55.2941 7.634C55.9781 7.358 56.7341 7.22 57.5621 7.22C58.3901 7.22 59.1461 7.358 59.8301 7.634C60.5141 7.91 61.0961 8.324 61.5761 8.876C62.0561 9.416 62.4281 10.094 62.6921 10.91C62.9561 11.714 63.0881 12.65 63.0881 13.718C63.0881 14.786 62.9561 15.728 62.6921 16.544C62.4281 17.348 62.0561 18.026 61.5761 18.578C61.0961 19.118 60.5141 19.526 59.8301 19.802C59.1461 20.078 58.3901 20.216 57.5621 20.216ZM57.5621 17.786C58.3901 17.786 59.0321 17.516 59.4881 16.976C59.9561 16.436 60.1901 15.662 60.1901 14.654V12.782C60.1901 11.774 59.9561 11 59.4881 10.46C59.0321 9.92 58.3901 9.65 57.5621 9.65C56.7341 9.65 56.0861 9.92 55.6181 10.46C55.1621 11 54.9341 11.774 54.9341 12.782V14.654C54.9341 15.662 55.1621 16.436 55.6181 16.976C56.0861 17.516 56.7341 17.786 57.5621 17.786Z" fill="#604FED"/>
<path d="M70.0517 20.216C69.2237 20.216 68.4677 20.078 67.7837 19.802C67.0997 19.526 66.5177 19.118 66.0377 18.578C65.5577 18.026 65.1857 17.348 64.9217 16.544C64.6577 15.728 64.5257 14.786 64.5257 13.718C64.5257 12.65 64.6577 11.714 64.9217 10.91C65.1857 10.094 65.5577 9.416 66.0377 8.876C66.5177 8.324 67.0997 7.91 67.7837 7.634C68.4677 7.358 69.2237 7.22 70.0517 7.22C70.8797 7.22 71.6357 7.358 72.3197 7.634C73.0037 7.91 73.5857 8.324 74.0657 8.876C74.5457 9.416 74.9177 10.094 75.1817 10.91C75.4457 11.714 75.5777 12.65 75.5777 13.718C75.5777 14.786 75.4457 15.728 75.1817 16.544C74.9177 17.348 74.5457 18.026 74.0657 18.578C73.5857 19.118 73.0037 19.526 72.3197 19.802C71.6357 20.078 70.8797 20.216 70.0517 20.216ZM70.0517 17.786C70.8797 17.786 71.5217 17.516 71.9777 16.976C72.4457 16.436 72.6797 15.662 72.6797 14.654V12.782C72.6797 11.774 72.4457 11 71.9777 10.46C71.5217 9.92 70.8797 9.65 70.0517 9.65C69.2237 9.65 68.5757 9.92 68.1077 10.46C67.6517 11 67.4237 11.774 67.4237 12.782V14.654C67.4237 15.662 67.6517 16.436 68.1077 16.976C68.5757 17.516 69.2237 17.786 70.0517 17.786Z" fill="#604FED"/>
<path d="M77.5013 20V7.436H80.2373V17.57H85.0253V20H77.5013Z" fill="#604FED"/>
<path d="M95.6561 20.216C94.8041 20.216 94.0361 20.084 93.3521 19.82C92.6681 19.544 92.0861 19.142 91.6061 18.614C91.1261 18.074 90.7541 17.408 90.4901 16.616C90.2261 15.812 90.0941 14.876 90.0941 13.808C90.0941 12.752 90.2261 11.816 90.4901 11C90.7541 10.172 91.1261 9.482 91.6061 8.93C92.0861 8.366 92.6681 7.94 93.3521 7.652C94.0361 7.364 94.8041 7.22 95.6561 7.22C96.8201 7.22 97.7801 7.46 98.5361 7.94C99.2921 8.408 99.8981 9.152 100.354 10.172L97.9961 11.396C97.8281 10.868 97.5641 10.448 97.2041 10.136C96.8561 9.812 96.3401 9.65 95.6561 9.65C94.8521 9.65 94.2041 9.914 93.7121 10.442C93.2321 10.958 92.9921 11.714 92.9921 12.71V14.726C92.9921 15.722 93.2321 16.484 93.7121 17.012C94.2041 17.528 94.8521 17.786 95.6561 17.786C96.3281 17.786 96.8621 17.606 97.2581 17.246C97.6661 16.874 97.9661 16.43 98.1581 15.914L100.39 17.21C99.9221 18.17 99.3041 18.914 98.5361 19.442C97.7801 19.958 96.8201 20.216 95.6561 20.216Z" fill="#604FED"/>
<path d="M109.544 20L108.644 17.012H104.45L103.55 20H100.778L104.918 7.436H108.302L112.388 20H109.544ZM106.574 9.92H106.484L105.098 14.69H107.978L106.574 9.92Z" fill="#604FED"/>
<path d="M117.834 20.216C116.73 20.216 115.794 20.03 115.026 19.658C114.258 19.274 113.604 18.782 113.064 18.182L114.864 16.364C115.716 17.324 116.766 17.804 118.014 17.804C118.686 17.804 119.184 17.666 119.508 17.39C119.832 17.114 119.994 16.748 119.994 16.292C119.994 15.944 119.898 15.656 119.706 15.428C119.514 15.188 119.124 15.026 118.536 14.942L117.294 14.78C115.962 14.612 114.984 14.21 114.36 13.574C113.748 12.938 113.442 12.092 113.442 11.036C113.442 10.472 113.55 9.956 113.766 9.488C113.982 9.02 114.288 8.618 114.684 8.282C115.092 7.946 115.584 7.688 116.16 7.508C116.748 7.316 117.414 7.22 118.158 7.22C119.106 7.22 119.94 7.37 120.66 7.67C121.38 7.97 121.998 8.408 122.514 8.984L120.696 10.82C120.396 10.472 120.03 10.19 119.598 9.974C119.178 9.746 118.644 9.632 117.996 9.632C117.384 9.632 116.928 9.74 116.628 9.956C116.328 10.172 116.178 10.472 116.178 10.856C116.178 11.288 116.292 11.6 116.52 11.792C116.76 11.984 117.144 12.122 117.672 12.206L118.914 12.404C120.21 12.608 121.17 13.01 121.794 13.61C122.418 14.198 122.73 15.038 122.73 16.13C122.73 16.73 122.622 17.282 122.406 17.786C122.19 18.29 121.872 18.722 121.452 19.082C121.044 19.442 120.534 19.724 119.922 19.928C119.31 20.12 118.614 20.216 117.834 20.216Z" fill="#604FED"/>
<path d="M124.153 20V17.822H125.773V9.614H124.153V7.436H130.129V9.614H128.509V17.822H130.129V20H124.153Z" fill="#604FED"/>
<path d="M135.882 14.06L134.676 11.54H134.622V20H132.048V7.436H135.036L138.474 13.376L139.68 15.896H139.734V7.436H142.308V20H139.32L135.882 14.06Z" fill="#604FED"/>
<path d="M149.754 20.216C148.926 20.216 148.17 20.078 147.486 19.802C146.802 19.526 146.22 19.118 145.74 18.578C145.26 18.026 144.888 17.348 144.624 16.544C144.36 15.728 144.228 14.786 144.228 13.718C144.228 12.65 144.36 11.714 144.624 10.91C144.888 10.094 145.26 9.416 145.74 8.876C146.22 8.324 146.802 7.91 147.486 7.634C148.17 7.358 148.926 7.22 149.754 7.22C150.582 7.22 151.338 7.358 152.022 7.634C152.706 7.91 153.288 8.324 153.768 8.876C154.248 9.416 154.62 10.094 154.884 10.91C155.148 11.714 155.28 12.65 155.28 13.718C155.28 14.786 155.148 15.728 154.884 16.544C154.62 17.348 154.248 18.026 153.768 18.578C153.288 19.118 152.706 19.526 152.022 19.802C151.338 20.078 150.582 20.216 149.754 20.216ZM149.754 17.786C150.582 17.786 151.224 17.516 151.68 16.976C152.148 16.436 152.382 15.662 152.382 14.654V12.782C152.382 11.774 152.148 11 151.68 10.46C151.224 9.92 150.582 9.65 149.754 9.65C148.926 9.65 148.278 9.92 147.81 10.46C147.354 11 147.126 11.774 147.126 12.782V14.654C147.126 15.662 147.354 16.436 147.81 16.976C148.278 17.516 148.926 17.786 149.754 17.786Z" fill="#604FED"/>
</svg>
